<?xml version="1.0" encoding="utf-8"?>
<!-- Generator: Adobe Illustrator 23.0.6, SVG Export Plug-In . SVG Version: 6.00 Build 0)  -->
<svg version="1.1" id="Ebene_1" xmlns="http://www.w3.org/2000/svg" xmlns:xlink="http://www.w3.org/1999/xlink" x="0px" y="0px" width="16" height="16"
     viewBox="0 0 24 24" style="enable-background:new 0 0 24 24;" xml:space="preserve">
<style type="text/css">
    .st0{opacity:1.000000e-02;fill:#FFFFFF;}
    .st1{fill:url(#SVGID_1_);}
    .st2{fill:url(#SVGID_2_);}
    .st3{fill:url(#SVGID_3_);}
</style>
    <rect class="st0" width="24" height="24"/>
    <g>
        <linearGradient id="SVGID_1_" gradientUnits="userSpaceOnUse" x1="0" y1="12.0001" x2="10" y2="12.0001">
            <stop  offset="0" style="stop-color:#BFBFBF"/>
            <stop  offset="1" style="stop-color:#404040"/>
        </linearGradient>
        <path class="st1" d="M9,16H6c-2.2,0-4-1.8-4-4c0-2.2,1.8-4,4-4h3c0.6,0,1-0.4,1-1S9.6,6,9,6H6c-3.3,0-6,2.7-6,6s2.7,6,6,6h3
		c0.6,0,1-0.4,1-1S9.6,16,9,16z"/>
        <linearGradient id="SVGID_2_" gradientUnits="userSpaceOnUse" x1="14" y1="12.0001" x2="24" y2="12.0001">
            <stop  offset="0" style="stop-color:#404040"/>
            <stop  offset="1" style="stop-color:#BFBFBF"/>
        </linearGradient>
        <path class="st2" d="M18,6h-3c-0.6,0-1,0.4-1,1s0.4,1,1,1h3c2.2,0,4,1.8,4,4c0,2.2-1.8,4-4,4h-3c-0.6,0-1,0.4-1,1s0.4,1,1,1h3
		c3.3,0,6-2.7,6-6S21.3,6,18,6z"/>
        <linearGradient id="SVGID_3_" gradientUnits="userSpaceOnUse" x1="7" y1="12.0001" x2="17" y2="12.0001">
            <stop  offset="0" style="stop-color:#404040"/>
            <stop  offset="1" style="stop-color:#BFBFBF"/>
        </linearGradient>
        <path class="st3" d="M7,12c0,0.6,0.4,1,1,1h8c0.6,0,1-0.4,1-1s-0.4-1-1-1H8C7.4,11,7,11.4,7,12z"/>
    </g>
</svg>
